<svg width="179" height="124" viewBox="0 0 179 124" fill="none" xmlns="http://www.w3.org/2000/svg">
<path opacity="0.036" d="M1.617 65.049L1.109 63.889C0.82078 63.2288 0.672006 62.5163 0.671997 61.796L0.671997 8.30698L21.54 29.175V57.275C21.5401 58.0687 21.7214 58.8519 22.07 59.565C28.2605 72.231 37.8829 82.9044 49.8417 90.3703C61.8004 97.8361 75.6151 101.794 89.713 101.794C103.811 101.794 117.626 97.8361 129.584 90.3703C141.543 82.9044 151.165 72.231 157.356 59.565C157.704 58.8517 157.885 58.0686 157.885 57.275V29.175L178.755 8.30698V61.796C178.755 62.5164 178.606 63.229 178.317 63.889L177.809 65.049C170.315 82.1768 157.991 96.7487 142.345 106.982C126.699 117.214 108.409 122.664 89.7135 122.664C71.0181 122.664 52.7282 117.214 37.0819 106.982C21.4356 96.7487 9.11161 82.1768 1.618 65.049H1.617ZM31.976 56.049V27.015C31.9761 25.631 31.4264 24.3037 30.448 23.325L8.05 0.927979H171.372L148.972 23.328C148.487 23.8124 148.103 24.3877 147.841 25.0209C147.578 25.654 147.444 26.3327 147.444 27.018V56.048C142.005 66.6799 133.735 75.6034 123.547 81.8349C113.36 88.0665 101.649 91.364 89.7065 91.364C77.764 91.364 66.0534 88.0665 55.8655 81.8349C45.6777 75.6034 37.4084 66.6799 31.969 56.048L31.976 56.049ZM84.496 75.713C84.4962 76.7447 84.8023 77.7532 85.3756 78.611C85.949 79.4688 86.7638 80.1373 87.717 80.5321C88.6702 80.9268 89.7191 81.03 90.731 80.8287C91.7429 80.6274 92.6724 80.1305 93.402 79.401C94.1315 78.6714 94.6284 77.7419 94.8297 76.73C95.031 75.7181 94.9278 74.6692 94.5331 73.716C94.1383 72.7627 93.4698 71.9479 92.612 71.3746C91.7543 70.8013 90.7457 70.4952 89.714 70.495C89.0289 70.4947 88.3504 70.6294 87.7174 70.8913C87.0843 71.1533 86.5091 71.5373 86.0244 72.0216C85.5398 72.5058 85.1553 73.0808 84.8929 73.7137C84.6305 74.3465 84.4953 75.0249 84.495 75.71L84.496 75.713ZM105.366 70.12C105.366 71.1519 105.672 72.1607 106.245 73.0188C106.818 73.8769 107.633 74.5457 108.586 74.9407C109.539 75.3357 110.588 75.4391 111.601 75.2378C112.613 75.0365 113.542 74.5396 114.272 73.81C115.002 73.0803 115.499 72.1506 115.7 71.1385C115.901 70.1264 115.798 69.0774 115.403 68.1241C115.008 67.1707 114.339 66.356 113.481 65.7828C112.623 65.2096 111.614 64.9038 110.582 64.904C109.199 64.904 107.873 65.4531 106.894 66.4306C105.916 67.4081 105.366 68.734 105.365 70.117L105.366 70.12ZM63.628 70.12C63.6278 71.1519 63.9336 72.1607 64.5068 73.0188C65.08 73.8769 65.8948 74.5457 66.8481 74.9407C67.8014 75.3357 68.8504 75.4391 69.8625 75.2378C70.8746 75.0365 71.8043 74.5396 72.534 73.81C73.2636 73.0803 73.7605 72.1506 73.9618 71.1385C74.1631 70.1264 74.0597 69.0774 73.6647 68.1241C73.2697 67.1707 72.6009 66.356 71.7428 65.7828C70.8847 65.2096 69.8759 64.9038 68.844 64.904C67.4611 64.904 66.1347 65.4531 65.1564 66.4306C64.1782 67.4081 63.6281 68.734 63.627 70.117L63.628 70.12ZM120.642 54.84C120.642 55.8719 120.948 56.8807 121.521 57.7388C122.094 58.5969 122.909 59.2657 123.862 59.6607C124.815 60.0557 125.864 60.159 126.877 59.9578C127.889 59.7565 128.818 59.2596 129.548 58.53C130.278 57.8003 130.775 56.8706 130.976 55.8585C131.177 54.8464 131.074 53.7974 130.679 52.8441C130.284 51.8907 129.615 51.076 128.757 50.5028C127.899 49.9296 126.89 49.6238 125.858 49.624C124.475 49.6242 123.148 50.1739 122.17 51.152C121.192 52.1301 120.642 53.4567 120.642 54.84V54.84ZM48.35 54.84C48.349 55.8721 48.6542 56.8812 49.2269 57.7399C49.7996 58.5985 50.614 59.2679 51.5673 59.6635C52.5206 60.0591 53.5697 60.1631 54.5821 59.9623C55.5944 59.7615 56.5245 59.2649 57.2546 58.5354C57.9846 57.8059 58.4819 56.8762 58.6835 55.864C58.8851 54.8518 58.7819 53.8025 58.3871 52.849C57.9922 51.8954 57.3234 51.0804 56.4652 50.5071C55.607 49.9337 54.5981 49.6278 53.566 49.628C52.1834 49.6282 50.8575 50.1773 49.8794 51.1546C48.9014 52.1319 48.3513 53.4574 48.35 54.84V54.84ZM126.233 33.972C126.233 35.0037 126.539 36.0122 127.113 36.87C127.686 37.7278 128.501 38.3963 129.454 38.791C130.407 39.1858 131.456 39.289 132.468 39.0877C133.48 38.8864 134.409 38.3895 135.139 37.66C135.869 36.9304 136.365 36.0009 136.567 34.989C136.768 33.9771 136.665 32.9282 136.27 31.975C135.875 31.0217 135.207 30.2069 134.349 29.6336C133.491 29.0603 132.483 28.7542 131.451 28.754C130.766 28.7538 130.087 28.8887 129.454 29.1509C128.821 29.4131 128.246 29.7974 127.761 30.282C127.276 30.7666 126.892 31.3418 126.63 31.975C126.368 32.6081 126.233 33.2867 126.233 33.972V33.972ZM42.757 33.972C42.7572 35.0038 43.0634 36.0125 43.6368 36.8703C44.2103 37.7282 45.0253 38.3967 45.9787 38.7913C46.9321 39.186 47.9811 39.289 48.9931 39.0875C50.0051 38.8859 50.9346 38.3887 51.664 37.6589C52.3935 36.929 52.8901 35.9993 53.0911 34.9872C53.2921 33.9751 53.1884 32.9261 52.7932 31.9729C52.398 31.0197 51.729 30.2051 50.8708 29.6322C50.0127 29.0592 49.0039 28.7536 47.972 28.754C46.5885 28.7545 45.2619 29.3045 44.284 30.2831C43.306 31.2616 42.7567 32.5885 42.757 33.972V33.972ZM63.627 27.016C63.6283 28.3986 64.1784 29.7241 65.1564 30.7014C66.1345 31.6786 67.4604 32.2277 68.843 32.228H110.581C111.965 32.228 113.292 31.6783 114.27 30.7C115.248 29.7216 115.798 28.3946 115.798 27.011C115.798 25.6273 115.248 24.3004 114.27 23.322C113.292 22.3436 111.965 21.794 110.581 21.794H68.843C68.1576 21.7941 67.479 21.9293 66.8459 22.1918C66.2128 22.4543 65.6376 22.8389 65.1533 23.3238C64.6689 23.8086 64.2848 24.3842 64.0229 25.0175C63.761 25.6509 63.6265 26.3296 63.627 27.015V27.016Z" fill="white"/>
<g filter="url(#filter0_d_124_9)">
<path d="M43.068 64.889L42.768 64.212C42.6012 63.8266 42.5158 63.411 42.517 62.991V31.774L54.696 43.953V60.353C54.6959 60.8164 54.8016 61.2737 55.005 61.69C58.6179 69.0822 64.2338 75.3115 71.2132 79.6687C78.1926 84.0259 86.2551 86.336 94.483 86.336C102.711 86.336 110.773 84.0259 117.753 79.6687C124.732 75.3115 130.348 69.0822 133.961 61.69C134.164 61.2736 134.27 60.8164 134.27 60.353V43.953L146.45 31.774V62.991C146.45 63.4113 146.363 63.827 146.194 64.212L145.894 64.889C141.521 74.8852 134.328 83.3897 125.196 89.3618C116.065 95.3339 105.391 98.5145 94.4795 98.5145C83.5685 98.5145 72.8941 95.3339 63.7625 89.3618C54.631 83.3897 47.4384 74.8852 43.065 64.889H43.068ZM60.787 59.635V42.692C60.7868 41.8845 60.466 41.1101 59.895 40.539L46.823 27.467H142.143L129.072 40.539C128.789 40.8217 128.565 41.1573 128.412 41.5268C128.259 41.8962 128.18 42.2922 128.18 42.692V59.635C125.005 65.84 120.179 71.048 114.233 74.6849C108.288 78.3217 101.453 80.2463 94.483 80.2463C87.513 80.2463 80.6785 78.3217 74.7326 74.6849C68.7867 71.048 63.9605 65.84 60.786 59.635H60.787ZM91.438 71.111C91.4378 71.7133 91.6162 72.3021 91.9507 72.803C92.2851 73.3039 92.7606 73.6943 93.317 73.925C93.8734 74.1556 94.4857 74.216 95.0764 74.0987C95.6672 73.9813 96.2098 73.6913 96.6358 73.2655C97.0617 72.8397 97.3518 72.2972 97.4694 71.7065C97.587 71.1158 97.5267 70.5035 97.2963 69.947C97.0658 69.3905 96.6756 68.9149 96.1748 68.5803C95.674 68.2457 95.0853 68.067 94.483 68.067C93.6756 68.067 92.9012 68.3877 92.3302 68.9585C91.7592 69.5294 91.4382 70.3036 91.438 71.111V71.111ZM103.617 67.847C103.617 68.4494 103.795 69.0382 104.13 69.5391C104.464 70.04 104.94 70.4305 105.496 70.6611C106.053 70.8917 106.665 70.952 107.256 70.8346C107.847 70.7171 108.389 70.4271 108.815 70.0012C109.241 69.5753 109.531 69.0326 109.649 68.4418C109.766 67.8511 109.706 67.2388 109.475 66.6823C109.244 66.1259 108.854 65.6503 108.353 65.3158C107.852 64.9813 107.263 64.8028 106.661 64.803C105.854 64.8033 105.08 65.1241 104.509 65.6949C103.938 66.2657 103.617 67.0398 103.617 67.847ZM79.258 67.847C79.2578 68.4494 79.4362 69.0382 79.7707 69.5391C80.1052 70.04 80.5808 70.4305 81.1372 70.6611C81.6937 70.8917 82.306 70.952 82.8968 70.8346C83.4876 70.7171 84.0302 70.4271 84.4561 70.0012C84.882 69.5753 85.1721 69.0326 85.2895 68.4418C85.407 67.8511 85.3466 67.2388 85.116 66.6823C84.8854 66.1259 84.495 65.6503 83.9941 65.3158C83.4932 64.9813 82.9043 64.8028 82.302 64.803C81.4949 64.8036 80.7211 65.1245 80.1505 65.6953C79.5799 66.266 79.2592 67.04 79.259 67.847H79.258ZM112.533 58.931C112.533 59.5334 112.711 60.1222 113.046 60.6231C113.38 61.124 113.856 61.5145 114.412 61.7451C114.969 61.9757 115.581 62.036 116.172 61.9186C116.763 61.8011 117.305 61.5111 117.731 61.0852C118.157 60.6593 118.447 60.1166 118.565 59.5258C118.682 58.9351 118.622 58.3227 118.391 57.7663C118.16 57.2099 117.77 56.7343 117.269 56.3998C116.768 56.0653 116.179 55.8868 115.577 55.887C114.77 55.8876 113.996 56.2085 113.425 56.7793C112.855 57.35 112.534 58.124 112.534 58.931H112.533ZM70.342 58.931C70.3418 59.5333 70.5202 60.1221 70.8547 60.623C71.1891 61.1239 71.6646 61.5143 72.221 61.745C72.7774 61.9756 73.3897 62.036 73.9804 61.9187C74.5712 61.8013 75.1138 61.5113 75.5398 61.0855C75.9657 60.6597 76.2558 60.1172 76.3734 59.5265C76.491 58.9358 76.4307 58.3235 76.2003 57.767C75.9698 57.2105 75.5796 56.7349 75.0788 56.4003C74.578 56.0657 73.9893 55.887 73.387 55.887C72.5797 55.8873 71.8056 56.2081 71.2348 56.7789C70.664 57.3497 70.3432 58.1238 70.343 58.931H70.342ZM115.797 46.752C115.797 47.3543 115.976 47.943 116.31 48.4438C116.645 48.9445 117.12 49.3348 117.677 49.5653C118.233 49.7957 118.845 49.856 119.436 49.7385C120.027 49.621 120.569 49.331 120.995 48.9052C121.421 48.4793 121.711 47.9368 121.828 47.3461C121.946 46.7554 121.886 46.1432 121.655 45.5868C121.425 45.0304 121.034 44.5548 120.534 44.2202C120.033 43.8856 119.444 43.707 118.842 43.707C118.034 43.707 117.26 44.0279 116.689 44.5989C116.118 45.17 115.797 45.9445 115.797 46.752ZM67.078 46.752C67.078 47.3543 67.2566 47.943 67.5912 48.4438C67.9257 48.9445 68.4013 49.3348 68.9577 49.5653C69.5141 49.7957 70.1264 49.856 70.717 49.7385C71.3077 49.621 71.8503 49.331 72.2761 48.9052C72.702 48.4793 72.992 47.9368 73.1095 47.3461C73.227 46.7554 73.1667 46.1432 72.9362 45.5868C72.7057 45.0304 72.3154 44.5548 71.8147 44.2202C71.3139 43.8856 70.7252 43.707 70.123 43.707C69.3156 43.7073 68.5413 44.0282 67.9705 44.5993C67.3997 45.1703 67.079 45.9446 67.079 46.752H67.078ZM79.258 42.692C79.2582 43.4993 79.579 44.2734 80.1498 44.8442C80.7206 45.415 81.4947 45.7358 82.302 45.736H106.663C107.471 45.736 108.245 45.4152 108.816 44.8442C109.387 44.2731 109.708 43.4986 109.708 42.691C109.708 41.8835 109.387 41.1089 108.816 40.5379C108.245 39.9669 107.471 39.646 106.663 39.646H82.303C81.9031 39.6462 81.5072 39.7251 81.1378 39.8782C80.7684 40.0314 80.4328 40.2558 80.1501 40.5386C79.8675 40.8215 79.6433 41.1572 79.4904 41.5267C79.3375 41.8962 79.2588 42.2922 79.259 42.692H79.258Z" fill="url(#paint0_linear_124_9)"/>
</g>
<defs>
<filter id="filter0_d_124_9" x="27.517" y="22.467" width="133.933" height="101.047" filterUnits="userSpaceOnUse" color-interpolation-filters="sRGB">
<feFlood flood-opacity="0" result="BackgroundImageFix"/>
<feColorMatrix in="SourceAlpha" type="matrix" values="0 0 0 0 0 0 0 0 0 0 0 0 0 0 0 0 0 0 127 0" result="hardAlpha"/>
<feOffset dy="10"/>
<feGaussianBlur stdDeviation="7.5"/>
<feColorMatrix type="matrix" values="0 0 0 0 1 0 0 0 0 1 0 0 0 0 1 0 0 0 0.325 0"/>
<feBlend mode="normal" in2="BackgroundImageFix" result="effect1_dropShadow_124_9"/>
<feBlend mode="normal" in="SourceGraphic" in2="effect1_dropShadow_124_9" result="shape"/>
</filter>
<linearGradient id="paint0_linear_124_9" x1="131.276" y1="126.578" x2="90.783" y2="-22.2384" gradientUnits="userSpaceOnUse">
<stop stop-color="#91F3FF"/>
<stop offset="1" stop-color="#FFF6AD"/>
</linearGradient>
</defs>
</svg>
