<svg width="179" height="181" viewBox="0 0 179 181" fill="none" xmlns="http://www.w3.org/2000/svg">
<path opacity="0.036" d="M29.891 169.794L0.554999 60.3091C-0.416973 56.6807 0.0919517 52.8148 1.96986 49.5615C3.84776 46.3083 6.94088 43.9341 10.569 42.9611L77.75 24.9611C79.5468 24.4767 81.4216 24.3517 83.2668 24.5931C85.1121 24.8345 86.8916 25.4376 88.5034 26.3678C90.1151 27.298 91.5276 28.5371 92.6597 30.0141C93.7918 31.4911 94.6214 33.1769 95.101 34.9751L124.436 144.461C125.409 148.09 124.9 151.956 123.022 155.21C121.143 158.463 118.05 160.837 114.421 161.81L47.24 179.81C45.4432 180.293 43.5687 180.417 41.7238 180.175C39.879 179.933 38.1 179.33 36.4886 178.4C34.8772 177.469 33.465 176.23 32.333 174.754C31.2009 173.277 30.3711 171.592 29.891 169.794V169.794ZM52.016 75.3701L41.743 105.787C41.5056 106.49 41.4813 107.248 41.6733 107.964C41.8653 108.681 42.265 109.325 42.822 109.815L66.927 131.022C67.3923 131.431 67.9514 131.719 68.5548 131.861C69.1581 132.002 69.787 131.992 70.3855 131.831C70.9841 131.671 71.5337 131.365 71.9856 130.941C72.4375 130.517 72.7777 129.988 72.976 129.401L83.249 98.9831C83.4863 98.28 83.5104 97.5224 83.3182 96.8057C83.126 96.089 82.7262 95.4451 82.169 94.9551L58.069 73.7491C57.6039 73.3393 57.0448 73.0509 56.4413 72.9094C55.8378 72.768 55.2088 72.7779 54.6101 72.9384C54.0114 73.0988 53.4616 73.4048 53.0097 73.829C52.5578 74.2533 52.2178 74.7827 52.02 75.3701H52.016ZM141.842 152.254L131.971 150.514C132.031 148.146 131.75 145.781 131.137 143.492L119.405 99.7051C127.09 94.7171 143.282 82.5881 145.942 67.4981C146.438 64.6825 145.976 61.7818 144.627 59.2605C143.279 56.7393 141.124 54.7435 138.507 53.5928C135.89 52.4421 132.962 52.2031 130.193 52.9141C127.424 53.625 124.973 55.2449 123.234 57.5141C122.698 55.8085 121.809 54.2347 120.626 52.8945C119.443 51.5542 117.991 50.4775 116.365 49.7341C114.739 48.9906 112.975 48.597 111.187 48.5788C109.399 48.5605 107.628 48.918 105.987 49.6281L101.801 34.0051C100.518 29.2385 97.8443 24.9625 94.12 21.723C90.3957 18.4835 85.7903 16.4277 80.892 15.8181L81.54 12.1411C81.863 10.3092 82.5437 8.55898 83.5431 6.99022C84.5426 5.42146 85.8413 4.06492 87.365 2.99806C88.8887 1.93121 90.6077 1.17492 92.4237 0.772395C94.2397 0.369867 96.1172 0.32898 97.949 0.652066L166.449 12.7301C170.147 13.3834 173.434 15.4784 175.587 18.5545C177.741 21.6305 178.585 25.4359 177.934 29.1341L158.25 140.764C157.929 142.597 157.25 144.348 156.251 145.918C155.252 147.488 153.954 148.845 152.429 149.913C150.905 150.98 149.186 151.736 147.369 152.138C145.552 152.54 143.674 152.579 141.842 152.254Z" fill="white"/>
<g filter="url(#filter0_d_124_8)">
<path d="M47.971 135.566L31.5 74.095C31.2298 73.0859 31.161 72.0335 31.2976 70.9979C31.4341 69.9622 31.7733 68.9636 32.2959 68.059C32.8184 67.1545 33.514 66.3617 34.3429 65.726C35.1718 65.0903 36.1179 64.6241 37.127 64.354L74.844 54.247C75.8528 53.9752 76.9054 53.9052 77.9413 54.0408C78.9773 54.1764 79.9763 54.5151 80.8812 55.0374C81.786 55.5598 82.579 56.2555 83.2145 57.0848C83.8501 57.914 84.3158 58.8605 84.585 59.87L101.055 121.343C101.325 122.352 101.394 123.405 101.257 124.44C101.121 125.476 100.781 126.474 100.259 127.379C99.7361 128.283 99.0404 129.076 98.2113 129.712C97.3823 130.347 96.4362 130.813 95.427 131.083L57.707 141.19C56.6981 141.461 55.6456 141.531 54.6098 141.395C53.574 141.259 52.5751 140.92 51.6704 140.398C50.7656 139.875 49.9728 139.18 49.3371 138.351C48.7015 137.522 48.2356 136.575 47.966 135.566H47.971ZM60.393 82.551L54.627 99.629C54.4931 100.023 54.4786 100.448 54.5854 100.85C54.6921 101.252 54.9153 101.614 55.227 101.89L68.766 113.797C69.0272 114.028 69.3414 114.19 69.6806 114.27C70.0198 114.35 70.3735 114.344 70.7101 114.254C71.0468 114.164 71.3559 113.992 71.6099 113.754C71.8639 113.515 72.055 113.217 72.166 112.887L77.927 95.809C78.0611 95.4148 78.0757 94.9898 77.9689 94.5873C77.8622 94.1849 77.6388 93.8229 77.327 93.547L63.789 81.641C63.5279 81.4101 63.2137 81.2474 62.8744 81.1675C62.5351 81.0876 62.1814 81.0929 61.8446 81.183C61.5079 81.2732 61.1988 81.4453 60.9448 81.684C60.6908 81.9227 60.4998 82.2206 60.389 82.551H60.393ZM110.827 125.718L105.285 124.741C105.319 123.411 105.161 122.083 104.817 120.798L98.227 96.214C102.542 93.414 111.633 86.603 113.127 78.131C113.406 76.5501 113.146 74.9215 112.389 73.5058C111.632 72.0902 110.422 70.9696 108.952 70.3235C107.483 69.6774 105.839 69.5432 104.284 69.9423C102.729 70.3415 101.354 71.251 100.377 72.525C100.076 71.5673 99.5771 70.6836 98.9127 69.931C98.2483 69.1785 97.4332 68.5739 96.5202 68.1564C95.6072 67.739 94.6167 67.518 93.6129 67.5077C92.6091 67.4975 91.6143 67.6983 90.693 68.097L88.343 59.325C87.6229 56.6496 86.1219 54.2493 84.0316 52.4308C81.9412 50.6123 79.3564 49.4579 76.607 49.115L76.971 47.051C77.1521 46.0225 77.5341 45.0397 78.0951 44.1588C78.6561 43.2778 79.3852 42.5161 80.2406 41.9169C81.096 41.3178 82.0611 40.893 83.0807 40.6669C84.1003 40.4408 85.1545 40.4177 86.183 40.599L124.641 47.377C125.67 47.5583 126.652 47.9404 127.533 48.5015C128.414 49.0626 129.176 49.7918 129.775 50.6473C130.374 51.5028 130.799 52.468 131.025 53.4876C131.251 54.5073 131.273 55.5615 131.092 56.59L120.04 119.267C119.86 120.296 119.478 121.279 118.917 122.161C118.357 123.042 117.627 123.804 116.772 124.404C115.916 125.003 114.95 125.427 113.93 125.653C112.91 125.878 111.856 125.901 110.827 125.718V125.718Z" fill="url(#paint0_linear_124_8)"/>
</g>
<defs>
<filter id="filter0_d_124_8" x="16.2293" y="35.4783" width="129.984" height="130.984" filterUnits="userSpaceOnUse" color-interpolation-filters="sRGB">
<feFlood flood-opacity="0" result="BackgroundImageFix"/>
<feColorMatrix in="SourceAlpha" type="matrix" values="0 0 0 0 0 0 0 0 0 0 0 0 0 0 0 0 0 0 127 0" result="hardAlpha"/>
<feOffset dy="10"/>
<feGaussianBlur stdDeviation="7.5"/>
<feColorMatrix type="matrix" values="0 0 0 0 1 0 0 0 0 1 0 0 0 0 1 0 0 0 0.325 0"/>
<feBlend mode="normal" in2="BackgroundImageFix" result="effect1_dropShadow_124_8"/>
<feBlend mode="normal" in="SourceGraphic" in2="effect1_dropShadow_124_8" result="shape"/>
</filter>
<linearGradient id="paint0_linear_124_8" x1="116.615" y1="181.351" x2="37.9897" y2="-14.2221" gradientUnits="userSpaceOnUse">
<stop stop-color="#91F3FF"/>
<stop offset="1" stop-color="#FFF6AD"/>
</linearGradient>
</defs>
</svg>
