<svg width="179" height="179" viewBox="0 0 179 179" fill="none" xmlns="http://www.w3.org/2000/svg">
<path opacity="0.036" d="M9.86902 178.294C7.42709 178.291 5.08608 177.319 3.35937 175.593C1.63266 173.866 0.661195 171.525 0.65802 169.083V95.3941C0.661195 92.9521 1.63262 90.611 3.35931 88.8841C5.08599 87.1572 7.42699 86.1856 9.86902 86.1821H83.558C86 86.1856 88.341 87.1572 90.0677 88.8841C91.7944 90.611 92.7658 92.9521 92.769 95.3941V169.083C92.7661 171.525 91.7948 173.866 90.068 175.593C88.3413 177.32 86.0001 178.292 83.558 178.295L9.86902 178.294ZM62.069 162.942C62.0692 164.764 62.6096 166.545 63.6218 168.059C64.634 169.574 66.0725 170.754 67.7556 171.451C69.4386 172.148 71.2906 172.331 73.0772 171.975C74.8639 171.62 76.5051 170.742 77.7932 169.454C79.0813 168.166 79.9585 166.525 80.314 164.738C80.6694 162.952 80.4871 161.1 79.7901 159.417C79.093 157.734 77.9126 156.295 76.398 155.283C74.8834 154.271 73.1027 153.73 71.281 153.73C68.8379 153.732 66.4953 154.703 64.7674 156.43C63.0396 158.158 62.0677 160.5 62.065 162.943L62.069 162.942ZM12.943 162.942C12.9432 164.764 13.4836 166.545 14.4958 168.059C15.508 169.574 16.9465 170.754 18.6296 171.451C20.3126 172.148 22.1646 172.331 23.9512 171.975C25.7379 171.62 27.3791 170.742 28.6672 169.454C29.9553 168.166 30.8325 166.525 31.188 164.738C31.5434 162.952 31.3611 161.1 30.6641 159.417C29.967 157.734 28.7866 156.295 27.272 155.283C25.7574 154.271 23.9767 153.73 22.155 153.73C19.7119 153.732 17.3693 154.703 15.6414 156.43C13.9136 158.158 12.9417 160.5 12.939 162.943L12.943 162.942ZM62.069 132.242C62.0692 134.064 62.6096 135.845 63.6218 137.359C64.634 138.874 66.0725 140.054 67.7556 140.751C69.4386 141.448 71.2906 141.631 73.0772 141.275C74.8639 140.92 76.5051 140.042 77.7932 138.754C79.0813 137.466 79.9585 135.825 80.314 134.038C80.6694 132.252 80.4871 130.4 79.7901 128.717C79.093 127.034 77.9126 125.595 76.398 124.583C74.8834 123.571 73.1027 123.03 71.281 123.03C68.8386 123.032 66.4966 124.003 64.7688 125.729C63.0411 127.455 62.0687 129.797 62.065 132.239L62.069 132.242ZM12.943 132.242C12.9432 134.064 13.4836 135.845 14.4958 137.359C15.508 138.874 16.9465 140.054 18.6296 140.751C20.3126 141.448 22.1646 141.631 23.9512 141.275C25.7379 140.92 27.3791 140.042 28.6672 138.754C29.9553 137.466 30.8325 135.825 31.188 134.038C31.5434 132.252 31.3611 130.4 30.6641 128.717C29.967 127.034 28.7866 125.595 27.272 124.583C25.7574 123.571 23.9767 123.03 22.155 123.03C19.7126 123.032 17.3706 124.003 15.6428 125.729C13.9151 127.455 12.9427 129.797 12.939 132.239L12.943 132.242ZM62.069 101.537C62.0692 103.359 62.6097 105.14 63.622 106.655C64.6344 108.169 66.0732 109.35 67.7565 110.047C69.4398 110.743 71.2919 110.926 73.0787 110.57C74.8655 110.214 76.5066 109.336 77.7946 108.048C79.0826 106.759 79.9595 105.118 80.3145 103.331C80.6695 101.544 80.4866 99.6919 79.7889 98.0089C79.0913 96.3259 77.9102 94.8876 76.3951 93.8759C74.88 92.8642 73.0989 92.3245 71.277 92.3251C68.8353 92.328 66.4943 93.2991 64.7674 95.0254C63.0406 96.7517 62.0687 99.0924 62.065 101.534L62.069 101.537ZM12.943 101.537C12.9432 103.359 13.4837 105.14 14.496 106.655C15.5084 108.169 16.9472 109.35 18.6305 110.047C20.3138 110.743 22.1659 110.926 23.9527 110.57C25.7395 110.214 27.3806 109.336 28.6686 108.048C29.9566 106.759 30.8335 105.118 31.1885 103.331C31.5435 101.544 31.3606 99.6919 30.6629 98.0089C29.9653 96.3259 28.7842 94.8876 27.2691 93.8759C25.754 92.8642 23.9729 92.3245 22.151 92.3251C19.7093 92.328 17.3683 93.2991 15.6414 95.0254C13.9146 96.7517 12.9427 99.0924 12.939 101.534L12.943 101.537ZM109.025 119.589L98.91 109.475V95.3941C98.9053 91.324 97.2863 87.4219 94.4083 84.5439C91.5302 81.6658 87.6282 80.0469 83.558 80.0421H69.478L59.367 69.9311C57.1633 67.7264 55.9254 64.7368 55.9254 61.6196C55.9254 58.5024 57.1633 55.5128 59.367 53.3081L109.021 3.65411C111.261 1.51749 114.237 0.325439 117.333 0.325439C120.428 0.325439 123.404 1.51749 125.644 3.65411L175.298 53.3081C177.502 55.5128 178.74 58.5024 178.74 61.6196C178.74 64.7368 177.502 67.7264 175.298 69.9311L125.644 119.585C123.404 121.721 120.428 122.913 117.333 122.913C114.237 122.913 111.261 121.721 109.021 119.585L109.025 119.589ZM108.125 101.537C108.125 103.359 108.666 105.14 109.678 106.655C110.69 108.169 112.129 109.35 113.813 110.047C115.496 110.743 117.348 110.926 119.135 110.57C120.921 110.214 122.563 109.336 123.851 108.048C125.139 106.759 126.015 105.118 126.37 103.331C126.725 101.544 126.543 99.6919 125.845 98.0089C125.147 96.3259 123.966 94.8876 122.451 93.8759C120.936 92.8642 119.155 92.3245 117.333 92.3251C114.891 92.328 112.55 93.2991 110.823 95.0254C109.097 96.7517 108.125 99.0924 108.121 101.534L108.125 101.537ZM148.041 61.6231C148.041 63.4448 148.582 65.2256 149.594 66.7402C150.606 68.2548 152.045 69.4352 153.728 70.1323C155.411 70.8293 157.263 71.0115 159.05 70.656C160.836 70.3005 162.477 69.4231 163.766 68.1349C165.054 66.8467 165.931 65.2055 166.286 63.4187C166.641 61.632 166.459 59.78 165.762 58.097C165.065 56.414 163.884 54.9754 162.369 53.9634C160.855 52.9513 159.074 52.4111 157.252 52.4111C154.809 52.4127 152.467 53.3832 150.74 55.1097C149.012 56.8362 148.039 59.1776 148.036 61.6201L148.041 61.6231ZM108.125 61.6231C108.125 63.4448 108.666 65.2255 109.678 66.7401C110.69 68.2547 112.129 69.4351 113.812 70.1322C115.495 70.8292 117.347 71.0115 119.133 70.6561C120.92 70.3006 122.561 69.4234 123.849 68.1353C125.137 66.8471 126.015 65.206 126.37 63.4193C126.725 61.6327 126.543 59.7807 125.846 58.0977C125.149 56.4146 123.969 54.9761 122.454 53.9639C120.939 52.9517 119.159 52.4113 117.337 52.4111C114.894 52.4127 112.552 53.3832 110.825 55.1097C109.097 56.8362 108.124 59.1776 108.121 61.6201L108.125 61.6231ZM68.211 61.6231C68.2112 63.4448 68.7516 65.2256 69.7638 66.7402C70.7761 68.2548 72.2147 69.4352 73.8978 70.1323C75.5809 70.8293 77.4329 71.0115 79.2196 70.656C81.0063 70.3005 82.6475 69.4231 83.9355 68.1349C85.2236 66.8467 86.1008 65.2055 86.4561 63.4187C86.8114 61.632 86.629 59.78 85.9318 58.097C85.2346 56.414 84.054 54.9754 82.5393 53.9634C81.0246 52.9513 79.2437 52.4111 77.422 52.4111C74.9797 52.413 72.6378 53.3836 70.9102 55.11C69.1826 56.8365 68.2105 59.1777 68.207 61.6201L68.211 61.6231ZM108.125 21.7071C108.125 23.5288 108.665 25.3096 109.677 26.8244C110.689 28.3391 112.128 29.5197 113.811 30.2169C115.494 30.9141 117.346 31.0965 119.133 30.7412C120.919 30.3859 122.561 29.5087 123.849 28.2206C125.137 26.9325 126.014 25.2914 126.37 23.5047C126.725 21.718 126.543 19.866 125.846 18.1829C125.149 16.4998 123.969 15.0612 122.454 14.0489C120.939 13.0367 119.159 12.4963 117.337 12.4961C114.895 12.498 112.553 13.4684 110.825 15.1946C109.097 16.9208 108.125 19.2618 108.121 21.7041L108.125 21.7071Z" fill="white"/>
<g filter="url(#filter0_d_124_7)">
<path d="M40.73 140.912C39.3107 140.91 37.9501 140.346 36.9466 139.342C35.9431 138.338 35.3786 136.977 35.377 135.558V92.7311C35.3789 91.3119 35.9434 89.9513 36.9469 88.9476C37.9503 87.944 39.3108 87.3792 40.73 87.3771H83.559C84.9782 87.3792 86.3387 87.944 87.3422 88.9476C88.3456 89.9513 88.9102 91.3119 88.912 92.7311V135.558C88.9104 136.977 88.346 138.338 87.3425 139.342C86.339 140.346 84.9783 140.91 83.559 140.912H40.73ZM71.067 131.99C71.067 133.049 71.381 134.084 71.9693 134.965C72.5576 135.845 73.3938 136.531 74.3721 136.937C75.3504 137.342 76.427 137.448 77.4655 137.241C78.5041 137.035 79.4581 136.525 80.2069 135.776C80.9556 135.027 81.4656 134.073 81.6721 133.035C81.8787 131.996 81.7727 130.92 81.3675 129.941C80.9622 128.963 80.276 128.127 79.3955 127.538C78.5151 126.95 77.4799 126.636 76.421 126.636C75.0015 126.638 73.6406 127.202 72.6369 128.206C71.6332 129.21 71.0686 130.571 71.067 131.99V131.99ZM42.515 131.99C42.515 133.049 42.829 134.084 43.4173 134.965C44.0056 135.845 44.8418 136.531 45.8201 136.937C46.7984 137.342 47.875 137.448 48.9135 137.241C49.9521 137.035 50.9061 136.525 51.6549 135.776C52.4036 135.027 52.9136 134.073 53.1201 133.035C53.3267 131.996 53.2207 130.92 52.8155 129.941C52.4102 128.963 51.724 128.127 50.8435 127.538C49.9631 126.95 48.9279 126.636 47.869 126.636C46.4495 126.638 45.0886 127.202 44.0849 128.206C43.0812 129.21 42.5166 130.571 42.515 131.99V131.99ZM71.067 114.145C71.067 115.204 71.381 116.239 71.9693 117.12C72.5576 118 73.3938 118.686 74.3721 119.092C75.3504 119.497 76.427 119.603 77.4655 119.396C78.5041 119.19 79.4581 118.68 80.2069 117.931C80.9556 117.182 81.4656 116.228 81.6721 115.19C81.8787 114.151 81.7727 113.075 81.3675 112.096C80.9622 111.118 80.276 110.282 79.3955 109.693C78.5151 109.105 77.4799 108.791 76.421 108.791C75.0015 108.793 73.6406 109.357 72.6369 110.361C71.6332 111.365 71.0686 112.726 71.067 114.145ZM42.515 114.145C42.515 115.204 42.829 116.239 43.4173 117.12C44.0056 118 44.8418 118.686 45.8201 119.092C46.7984 119.497 47.875 119.603 48.9135 119.396C49.9521 119.19 50.9061 118.68 51.6549 117.931C52.4036 117.182 52.9136 116.228 53.1201 115.19C53.3267 114.151 53.2207 113.075 52.8155 112.096C52.4102 111.118 51.724 110.282 50.8435 109.693C49.9631 109.105 48.9279 108.791 47.869 108.791C46.4495 108.793 45.0886 109.357 44.0849 110.361C43.0812 111.365 42.5166 112.726 42.515 114.145V114.145ZM71.067 96.2991C71.0668 97.358 71.3807 98.3933 71.9688 99.2739C72.557 100.154 73.3931 100.841 74.3714 101.246C75.3497 101.652 76.4263 101.758 77.4649 101.551C78.5036 101.345 79.4576 100.835 80.2065 100.086C80.9554 99.3376 81.4654 98.3836 81.6721 97.345C81.8787 96.3064 81.7728 95.2298 81.3676 94.2514C80.9624 93.2731 80.2761 92.4368 79.3956 91.8485C78.5152 91.2601 77.48 90.9461 76.421 90.9461C75.0017 90.9477 73.641 91.5121 72.6373 92.5156C71.6336 93.5191 71.0689 94.8798 71.067 96.2991V96.2991ZM42.515 96.2991C42.5148 97.358 42.8287 98.3933 43.4168 99.2739C44.005 100.154 44.8411 100.841 45.8194 101.246C46.7977 101.652 47.8743 101.758 48.9129 101.551C49.9516 101.345 50.9056 100.835 51.6545 100.086C52.4034 99.3376 52.9134 98.3836 53.1201 97.345C53.3267 96.3064 53.2208 95.2298 52.8156 94.2514C52.4104 93.2731 51.7241 92.4368 50.8436 91.8485C49.9632 91.2601 48.928 90.9461 47.869 90.9461C46.4497 90.9477 45.089 91.5121 44.0853 92.5156C43.0816 93.5191 42.5169 94.8798 42.515 96.2991V96.2991ZM98.357 106.791L92.477 100.914V92.7311C92.4741 90.3657 91.5332 88.0981 89.8606 86.4255C88.188 84.7529 85.9204 83.812 83.555 83.8091H75.377L69.501 77.9331C68.2203 76.6517 67.5008 74.9142 67.5008 73.1026C67.5008 71.2909 68.2203 69.5534 69.501 68.2721L98.357 39.4121C99.6589 38.1708 101.389 37.4783 103.188 37.4783C104.986 37.4783 106.716 38.1708 108.018 39.4121L136.877 68.2711C138.158 69.5524 138.877 71.2899 138.877 73.1016C138.877 74.9132 138.158 76.6507 136.877 77.9321L108.019 106.791C106.717 108.032 104.987 108.725 103.189 108.725C101.39 108.725 99.6599 108.032 98.358 106.791H98.357ZM97.834 96.2991C97.8338 97.358 98.1477 98.3933 98.7358 99.2739C99.324 100.154 100.16 100.841 101.138 101.246C102.117 101.652 103.193 101.758 104.232 101.551C105.271 101.345 106.225 100.835 106.974 100.086C107.722 99.3376 108.232 98.3836 108.439 97.345C108.646 96.3064 108.54 95.2298 108.135 94.2514C107.729 93.2731 107.043 92.4368 106.163 91.8485C105.282 91.2601 104.247 90.9461 103.188 90.9461C101.769 90.9477 100.408 91.5121 99.4043 92.5156C98.4006 93.5191 97.8359 94.8798 97.834 96.2991V96.2991ZM121.034 73.0991C121.034 74.158 121.348 75.1932 121.936 76.0737C122.525 76.9542 123.361 77.6404 124.339 78.0456C125.318 78.4508 126.394 78.5568 127.433 78.3501C128.471 78.1435 129.425 77.6334 130.174 76.8846C130.923 76.1357 131.433 75.1816 131.639 74.143C131.846 73.1043 131.74 72.0278 131.334 71.0495C130.929 70.0712 130.242 69.2351 129.362 68.6469C128.481 68.0587 127.446 67.7449 126.387 67.7451C124.967 67.7467 123.606 68.3115 122.602 69.3157C121.598 70.3199 121.034 71.6813 121.033 73.1011L121.034 73.0991ZM97.834 73.0991C97.834 74.158 98.148 75.1931 98.7363 76.0736C99.3246 76.9541 100.161 77.6403 101.139 78.0455C102.117 78.4508 103.194 78.5568 104.233 78.3502C105.271 78.1436 106.225 77.6337 106.974 76.8849C107.723 76.1362 108.233 75.1822 108.439 74.1436C108.646 73.105 108.54 72.0285 108.134 71.0502C107.729 70.0719 107.043 69.2357 106.163 68.6474C105.282 68.0591 104.247 67.7451 103.188 67.7451C101.768 67.7467 100.407 68.3115 99.4032 69.3157C98.3994 70.3199 97.8351 71.6813 97.834 73.1011V73.0991ZM74.634 73.0991C74.634 74.158 74.948 75.1932 75.5364 76.0737C76.1247 76.9542 76.961 77.6404 77.9394 78.0456C78.9177 78.4508 79.9943 78.5568 81.0329 78.3501C82.0715 78.1435 83.0255 77.6334 83.7742 76.8846C84.5229 76.1357 85.0328 75.1816 85.2393 74.143C85.4457 73.1043 85.3396 72.0278 84.9342 71.0495C84.5288 70.0712 83.8424 69.2351 82.9618 68.6469C82.0812 68.0587 81.046 67.7449 79.987 67.7451C78.5677 67.7475 77.2073 68.3127 76.2042 69.3168C75.201 70.3208 74.6371 71.6818 74.636 73.1011L74.634 73.0991ZM97.834 49.8991C97.8338 50.958 98.1477 51.9933 98.7358 52.8739C99.324 53.7545 100.16 54.4409 101.138 54.8462C102.117 55.2516 103.193 55.3578 104.232 55.1513C105.271 54.9449 106.225 54.435 106.974 53.6863C107.722 52.9376 108.232 51.9836 108.439 50.945C108.646 49.9064 108.54 48.8298 108.135 47.8514C107.729 46.8731 107.043 46.0368 106.163 45.4485C105.282 44.8601 104.247 44.5461 103.188 44.5461C101.768 44.5477 100.407 45.1125 99.4032 46.1167C98.3994 47.1209 97.8351 48.4823 97.834 49.9021V49.8991Z" fill="url(#paint0_linear_124_7)"/>
</g>
<defs>
<filter id="filter0_d_124_7" x="20.377" y="32.4783" width="133.5" height="133.434" filterUnits="userSpaceOnUse" color-interpolation-filters="sRGB">
<feFlood flood-opacity="0" result="BackgroundImageFix"/>
<feColorMatrix in="SourceAlpha" type="matrix" values="0 0 0 0 0 0 0 0 0 0 0 0 0 0 0 0 0 0 127 0" result="hardAlpha"/>
<feOffset dy="10"/>
<feGaussianBlur stdDeviation="7.5"/>
<feColorMatrix type="matrix" values="0 0 0 0 1 0 0 0 0 1 0 0 0 0 1 0 0 0 0.325 0"/>
<feBlend mode="normal" in2="BackgroundImageFix" result="effect1_dropShadow_124_7"/>
<feBlend mode="normal" in="SourceGraphic" in2="effect1_dropShadow_124_7" result="shape"/>
</filter>
<linearGradient id="paint0_linear_124_7" x1="123.766" y1="181.768" x2="43.8491" y2="-19.1353" gradientUnits="userSpaceOnUse">
<stop stop-color="#91F3FF"/>
<stop offset="1" stop-color="#FFF6AD"/>
</linearGradient>
</defs>
</svg>
