<svg width="32" height="37" viewBox="0 0 32 37" fill="none" xmlns="http://www.w3.org/2000/svg">
<path d="M21.15 17.1471C21.1195 17.5037 20.9859 17.8436 20.7655 18.1255C20.545 18.4073 20.2473 18.6189 19.9086 18.7345C19.57 18.85 19.205 18.8644 18.8582 18.776C18.5115 18.6875 18.198 18.5001 17.956 18.2365C17.714 17.9729 17.554 17.6445 17.4955 17.2915C17.437 16.9385 17.4825 16.5761 17.6265 16.2485C17.7705 15.9209 18.0068 15.6423 18.3064 15.4467C18.6061 15.2512 18.9562 15.1471 19.314 15.1471C19.566 15.1577 19.8134 15.2178 20.042 15.324C20.2707 15.4303 20.4762 15.5806 20.6468 15.7664C20.8173 15.9521 20.9495 16.1697 21.0359 16.4066C21.1222 16.6436 21.161 16.8952 21.15 17.1471ZM12.744 15.1471C12.238 15.1829 11.7644 15.4092 11.4186 15.7803C11.0728 16.1514 10.8805 16.6399 10.8805 17.1471C10.8805 17.6544 11.0728 18.1428 11.4186 18.5139C11.7644 18.8851 12.238 19.1113 12.744 19.1471C12.996 19.1366 13.2434 19.0765 13.472 18.9702C13.7007 18.8639 13.9062 18.7136 14.0768 18.5279C14.2473 18.3421 14.3795 18.1245 14.4659 17.8876C14.5522 17.6507 14.591 17.399 14.58 17.1471C14.5926 16.8946 14.5549 16.6422 14.469 16.4044C14.3831 16.1667 14.2508 15.9484 14.0798 15.7623C13.9087 15.5762 13.7024 15.4259 13.4727 15.3203C13.243 15.2147 12.9946 15.1558 12.742 15.1471H12.744ZM31.75 3.75512V36.0471C27.215 32.0401 28.666 33.3661 23.398 28.4691L24.352 31.7991H3.94001C2.95905 31.7965 2.0193 31.4044 1.32735 30.7091C0.635395 30.0137 0.247884 29.0721 0.250009 28.0911V3.75512C0.247884 2.77416 0.635395 1.83251 1.32735 1.13718C2.0193 0.441856 2.95905 0.0497681 3.94001 0.0471191L28.06 0.0471191C29.041 0.0497681 29.9807 0.441856 30.6727 1.13718C31.3646 1.83251 31.7521 2.77416 31.75 3.75512ZM26.62 20.8191C26.5617 17.17 25.6754 13.5817 24.028 10.3251C22.5784 9.18654 20.811 8.52613 18.97 8.43512L18.718 8.72312C20.357 9.15924 21.8847 9.93843 23.2 11.0091C21.1464 9.90202 18.8668 9.2794 16.5355 9.18893C14.2043 9.09845 11.8832 9.54251 9.75001 10.4871C9.08401 10.7931 8.68801 11.0091 8.68801 11.0091C10.0744 9.8829 11.6922 9.0764 13.426 8.64712L13.25 8.43512C11.409 8.52613 9.64161 9.18654 8.19201 10.3251C6.54318 13.5814 5.65552 17.1697 5.59601 20.8191C6.21681 21.6902 7.04219 22.3952 7.99952 22.8723C8.95685 23.3494 10.0168 23.5839 11.086 23.5551C11.086 23.5551 11.752 22.7451 12.292 22.0611C11.0266 21.7418 9.91243 20.9905 9.14201 19.9371C9.40701 20.1221 9.84201 20.3631 9.88001 20.3871C11.5884 21.3183 13.4824 21.858 15.4251 21.9669C17.3677 22.0759 19.3102 21.7515 21.112 21.0171C21.8399 20.7424 22.5343 20.3862 23.182 19.9551C22.3828 21.0312 21.2287 21.7899 19.924 22.0971C20.464 22.7811 21.112 23.5551 21.112 23.5551C22.1835 23.5822 23.2454 23.3471 24.2053 22.8702C25.1653 22.3934 25.9942 21.6893 26.62 20.8191Z" fill="white"/>
</svg>
