<svg width="39" height="37" viewBox="0 0 39 37" fill="none" xmlns="http://www.w3.org/2000/svg">
<path d="M17.752 0.130989C13.5567 0.593464 9.63811 2.45108 6.62438 5.40607C3.61066 8.36107 1.67631 12.2423 1.13137 16.4277C0.586436 20.6131 1.46248 24.8603 3.61908 28.4885C5.77569 32.1166 9.08796 34.9157 13.025 36.437C13.1653 36.4837 13.3152 36.4938 13.4605 36.4664C13.6058 36.4389 13.7418 36.3749 13.8554 36.2803C13.9691 36.1856 14.0567 36.0636 14.11 35.9256C14.1633 35.7877 14.1805 35.6384 14.16 35.492V32.469C13.602 32.5941 13.0319 32.6575 12.46 32.658C11.4761 32.6387 10.5323 32.2644 9.80251 31.6042C9.07277 30.9439 8.60627 30.0421 8.48899 29.065C8.29954 28.3371 7.90487 27.679 7.35199 27.169C6.78499 26.98 6.59599 26.98 6.59599 26.791C6.59599 26.413 7.16299 26.413 7.35199 26.413C8.48699 26.413 9.43199 27.737 9.80999 28.304C10.0614 28.8132 10.4348 29.2524 10.897 29.5825C11.3592 29.9126 11.8957 30.1233 12.459 30.196C13.0474 30.2042 13.6295 30.0747 14.159 29.818C14.2189 29.1505 14.4182 28.5031 14.7439 27.9174C15.0696 27.3318 15.5146 26.821 16.05 26.418C11.701 25.473 8.48599 23.018 8.48599 18.854C8.55071 16.7532 9.35578 14.7428 10.759 13.178C10.4644 12.3281 10.3361 11.4294 10.381 10.531C10.3244 9.49176 10.5188 8.45417 10.948 7.50599C12.9476 7.67538 14.823 8.54597 16.243 9.96399C17.3972 9.56196 18.6141 9.36992 19.836 9.39699C21.1186 9.38587 22.395 9.57722 23.618 9.96399C25.0179 8.51972 26.9024 7.64392 28.909 7.50499C29.1987 8.48604 29.3264 9.5078 29.287 10.53C29.3522 11.4292 29.2233 12.332 28.909 13.177C30.3408 14.7224 31.1491 16.7435 31.178 18.85C31.178 23.01 27.963 25.468 23.614 26.414C24.2163 26.9659 24.6959 27.6383 25.0217 28.3875C25.3474 29.1367 25.5121 29.946 25.505 30.763V35.679C25.5114 35.8358 25.5535 35.9891 25.6282 36.1271C25.7028 36.2651 25.808 36.3843 25.9358 36.4755C26.0635 36.5666 26.2104 36.6274 26.3652 36.6531C26.52 36.6789 26.6786 36.6689 26.829 36.624C31.0796 34.9154 34.569 31.7274 36.6536 27.6481C38.7382 23.5687 39.2773 18.873 38.1715 14.4274C37.0657 9.98166 34.3896 6.08579 30.6368 3.45834C26.8841 0.830887 22.3077 -0.35089 17.752 0.130989Z" fill="white"/>
</svg>
