<svg width="221" height="14" viewBox="0 0 221 14" fill="none" xmlns="http://www.w3.org/2000/svg">
<path d="M14.337 0.73291V4.09692H4.69495C4.48395 4.09692 4.39496 4.217 4.39496 4.427V5.8689H14.277V8.302H4.39496V9.83398C4.39496 10.074 4.48495 10.1639 4.69495 10.1639H14.337V13.408H2.77198C2.5311 13.4433 2.2853 13.4218 2.0542 13.3452C1.82311 13.2686 1.61313 13.1391 1.44098 12.9669C1.26884 12.7948 1.13931 12.5849 1.06275 12.3538C0.98618 12.1227 0.964699 11.8769 1 11.636V2.41394C1 1.27261 1.59999 0.701904 2.79999 0.701904H14.334L14.337 0.73291Z" fill="white"/>
<path d="M21.846 13.4092C21.1873 13.4207 20.5303 13.3399 19.894 13.1692C19.408 13.0334 18.9703 12.7626 18.632 12.3882C18.2975 12.0219 18.06 11.5776 17.941 11.0961C17.7866 10.509 17.7159 9.90304 17.731 9.29614V0.733154H21.155V8.96313C21.1273 9.30113 21.2116 9.63879 21.395 9.92407C21.545 10.1041 21.846 10.1642 22.295 10.1642H31.066V13.4081L21.846 13.4092Z" fill="white"/>
<path d="M30.496 1.15308C30.4165 1.08191 30.346 1.00132 30.286 0.913086C30.256 0.853086 30.196 0.793154 30.196 0.733154H34.371L34.461 0.913086C34.521 1.00127 34.5916 1.08185 34.671 1.15308L37.855 4.63818C37.8891 4.67609 37.9309 4.7063 37.9775 4.72705C38.0241 4.7478 38.0745 4.75854 38.1255 4.75854C38.1765 4.75854 38.227 4.7478 38.2736 4.72705C38.3202 4.7063 38.3619 4.67609 38.396 4.63818L41.58 1.15308C41.7102 1.0302 41.8214 0.888729 41.91 0.733154H46.025C45.995 0.793154 45.935 0.853086 45.905 0.913086C45.845 1.00132 45.7745 1.08191 45.695 1.15308L39.748 7.73218V13.4092H36.324V7.49219L30.496 1.15308Z" fill="white"/>
<path d="M61.195 4.09408H52.064C51.8922 4.09375 51.721 4.11383 51.554 4.15401C51.4388 4.18413 51.3347 4.24664 51.254 4.33407C51.1655 4.41941 51.0958 4.52225 51.0493 4.63607C51.0028 4.74988 50.9805 4.87218 50.984 4.99508C50.9915 5.17473 51.0528 5.34796 51.1597 5.49251C51.2666 5.63706 51.4144 5.74633 51.584 5.80611C51.731 5.84456 51.8821 5.86465 52.034 5.86605H57.621C58.2351 5.84302 58.8475 5.94514 59.421 6.1661C59.891 6.36427 60.3192 6.64957 60.683 7.00704C61.0137 7.36273 61.2873 7.76749 61.494 8.20699C61.6855 8.66398 61.7874 9.15355 61.794 9.64901C61.7961 10.5564 61.4648 11.433 60.863 12.112C60.4993 12.5137 60.0603 12.8403 59.571 13.0731C58.9744 13.3303 58.3284 13.4532 57.679 13.4331H47.828V10.1941H57.08C57.284 10.2058 57.4884 10.1752 57.68 10.1041C57.8206 10.0604 57.9456 9.97707 58.04 9.8641C58.1109 9.78746 58.1659 9.69756 58.202 9.59957C58.238 9.50157 58.2543 9.39737 58.25 9.29305C58.2563 9.1698 58.2355 9.04671 58.1888 8.93246C58.1421 8.8182 58.0709 8.71558 57.98 8.63204C57.8897 8.53501 57.7761 8.46275 57.65 8.42208C57.4625 8.38051 57.271 8.36032 57.079 8.36202H51.913C51.2192 8.39115 50.5261 8.28945 49.87 8.06209C49.3833 7.87911 48.9423 7.59204 48.578 7.22103C48.2467 6.87194 47.982 6.46531 47.797 6.02108C47.6153 5.56218 47.5237 5.0726 47.527 4.57906C47.5191 4.08245 47.6216 3.59024 47.827 3.13802C48.0118 2.68644 48.2879 2.27796 48.638 1.93807C48.991 1.5675 49.4221 1.28015 49.9 1.09701C50.5558 0.869746 51.2485 0.768047 51.942 0.797079H61.254V4.09701L61.195 4.09408Z" fill="white"/>
<path d="M68.464 0.733154V13.4092H65.04V0.733154H68.464Z" fill="white"/>
<path d="M76.605 13.4091C75.9165 13.4179 75.2298 13.3372 74.562 13.1691C74.049 13.0463 73.5742 12.7987 73.18 12.4481C72.8083 12.1075 72.538 11.6707 72.399 11.186C72.2316 10.59 72.1508 9.97314 72.159 9.35413V0.703125H75.583V8.96313C75.583 9.74413 76.004 10.134 76.815 10.134H82.101C82.9424 10.134 83.3631 9.7438 83.3631 8.96313V0.703125H86.787V9.35413C86.838 9.91229 86.7738 10.4749 86.5981 11.0072C86.4225 11.5395 86.1392 12.0299 85.766 12.4481C84.7804 13.176 83.5624 13.5178 82.342 13.4091H76.605Z" fill="white"/>
<path d="M100.153 13.679C99.718 13.6825 99.2875 13.5904 98.892 13.4091C98.5061 13.2334 98.1967 12.924 98.021 12.538L94.176 4.54804C94.1573 4.50064 94.1239 4.46054 94.0807 4.43353C94.0375 4.40653 93.9868 4.39416 93.936 4.39813C93.8574 4.40164 93.7828 4.43359 93.726 4.4881C93.666 4.55341 93.6337 4.63945 93.636 4.72809V13.4091H90.361V4.12811C90.3371 3.52304 90.4392 2.9195 90.661 2.35602C90.8641 1.91638 91.1614 1.52684 91.532 1.21503C92.1688 0.724347 92.9511 0.460094 93.755 0.464051C94.4664 0.427951 95.1648 0.664337 95.708 1.12506C96.2402 1.60444 96.6695 2.18691 96.97 2.8371L99.853 9.08502C99.8754 9.15507 99.9195 9.21622 99.9789 9.25958C100.038 9.30295 100.11 9.32636 100.183 9.32636C100.257 9.32636 100.329 9.30295 100.388 9.25958C100.448 9.21622 100.492 9.15507 100.514 9.08502L103.398 2.8371C103.698 2.19474 104.116 1.61408 104.629 1.12506C105.184 0.663906 105.892 0.427977 106.612 0.464051C107.032 0.452973 107.45 0.524399 107.843 0.674134C108.192 0.818228 108.524 0.999509 108.834 1.21503C109.204 1.527 109.502 1.9165 109.705 2.35602C109.929 2.91878 110.032 3.52287 110.005 4.12811V13.4091H106.731V4.72809C106.731 4.60809 106.701 4.5181 106.641 4.4881C106.615 4.45882 106.582 4.43564 106.546 4.42011C106.51 4.40457 106.47 4.39707 106.431 4.39813C106.38 4.39416 106.329 4.40653 106.286 4.43353C106.243 4.46054 106.21 4.50064 106.191 4.54804L102.346 12.538C102.162 12.9178 101.855 13.2247 101.475 13.4091C101.056 13.5849 100.607 13.6766 100.153 13.679Z" fill="white"/>
<path d="M126.496 13.409H123.102V1.51402C123.102 0.973023 123.373 0.733017 123.943 0.733017H132.954C133.62 0.716623 134.283 0.828619 134.907 1.06297C135.392 1.26395 135.831 1.5601 136.199 1.93394C136.516 2.26551 136.77 2.65217 136.949 3.07494C137.131 3.50225 137.223 3.96251 137.22 4.42699C137.223 4.92061 137.131 5.41024 136.949 5.869C136.757 6.34051 136.434 6.747 136.018 7.04002C136.414 7.26492 136.737 7.59832 136.949 8.00096C137.169 8.53348 137.271 9.10724 137.249 9.68297V12.8671C137.254 13.0488 137.275 13.2296 137.31 13.4079H133.886C133.851 13.1289 133.831 12.8482 133.826 12.567V10.0441C133.837 9.88363 133.814 9.72264 133.757 9.57225C133.7 9.42186 133.611 9.28557 133.496 9.17296C133.177 8.96231 132.796 8.86703 132.415 8.90294H126.498L126.496 13.409ZM132.504 6.02C132.702 6.03331 132.899 5.99179 133.075 5.90001C133.214 5.82464 133.336 5.72265 133.435 5.59996C133.584 5.41128 133.668 5.1794 133.675 4.93895C133.681 4.80666 133.66 4.67449 133.614 4.55052C133.567 4.42655 133.496 4.31344 133.404 4.218C133.283 4.09694 133.137 4.00448 132.976 3.94737C132.815 3.89027 132.643 3.87 132.473 3.88805H126.736C126.699 3.88271 126.662 3.8859 126.627 3.89757C126.591 3.90923 126.559 3.92898 126.533 3.95518C126.507 3.98139 126.487 4.01337 126.475 4.04857C126.463 4.08377 126.46 4.12119 126.465 4.15794V5.98997H132.503L132.504 6.02Z" fill="white"/>
<path d="M147.041 13.4099C146.023 13.4328 145.012 13.2487 144.067 12.8689C143.256 12.5289 142.529 12.0171 141.935 11.3689C141.429 10.8012 141.023 10.1512 140.735 9.4469C140.44 8.70173 140.297 7.90512 140.314 7.10388C140.308 6.22781 140.486 5.3603 140.838 4.55798C141.19 3.75566 141.707 3.0366 142.356 2.44787C142.938 1.90755 143.623 1.48907 144.369 1.21691C145.234 0.902219 146.149 0.74929 147.069 0.765865H149.742C150.662 0.74929 151.577 0.902219 152.442 1.21691C153.188 1.48887 153.873 1.90738 154.455 2.44787C155.082 3.03756 155.591 3.74105 155.955 4.52087C156.318 5.33328 156.503 6.2141 156.496 7.10388C156.499 7.90391 156.356 8.69777 156.075 9.4469C155.795 10.1548 155.388 10.806 154.875 11.3689C154.275 12.0106 153.549 12.5213 152.742 12.8689C151.798 13.2488 150.786 13.4329 149.768 13.4099H147.041ZM147.041 4.0979C146.549 4.07407 146.057 4.15589 145.599 4.33789C145.25 4.48804 144.926 4.69032 144.638 4.93786C144.349 5.21161 144.115 5.53777 143.947 5.89892C143.776 6.27519 143.694 6.68575 143.707 7.09887C143.701 7.47962 143.772 7.8577 143.917 8.20996C144.053 8.54098 144.246 8.8455 144.487 9.10986C144.776 9.41606 145.123 9.6613 145.508 9.83093C145.995 10.0232 146.516 10.1151 147.04 10.1009H149.714C150.238 10.1151 150.759 10.0232 151.246 9.83093C151.97 9.52198 152.543 8.93872 152.838 8.20886C152.985 7.85737 153.057 7.47886 153.048 7.0979C153.047 6.68612 152.965 6.27861 152.808 5.89794C152.651 5.53059 152.415 5.20237 152.117 4.93689C151.832 4.68534 151.507 4.48264 151.156 4.33691C150.696 4.164 150.206 4.08248 149.715 4.09692L147.041 4.0979Z" fill="white"/>
<path d="M157.254 1.15308C157.175 1.08193 157.104 1.00135 157.044 0.913086C157.014 0.853086 156.954 0.793154 156.954 0.733154H161.129L161.219 0.913086C161.279 1.00124 161.35 1.08182 161.429 1.15308L164.613 4.63818C164.647 4.67609 164.689 4.7063 164.735 4.72705C164.782 4.7478 164.833 4.75854 164.884 4.75854C164.935 4.75854 164.985 4.7478 165.031 4.72705C165.078 4.7063 165.12 4.67609 165.154 4.63818L168.338 1.15308C168.468 1.03027 168.579 0.888787 168.668 0.733154H172.783C172.753 0.793154 172.693 0.853086 172.663 0.913086C172.603 1.00128 172.532 1.08186 172.453 1.15308L166.505 7.73218V13.4092H163.08V7.49219L157.254 1.15308Z" fill="white"/>
<path d="M187.802 12.838C187.854 12.922 187.895 13.0129 187.922 13.108L188.012 13.378H184.167C184.136 13.3011 184.116 13.2204 184.107 13.138C184.069 13.0743 184.049 13.0019 184.047 12.9279L183.386 11.396H175.877L175.216 12.9279C175.178 13.0025 175.158 13.0845 175.156 13.1679C175.126 13.2279 175.126 13.3179 175.096 13.4079H171.161L171.251 13.138C171.278 13.0425 171.318 12.9513 171.371 12.867L175.907 2.80502C176.21 2.08946 176.71 1.47476 177.349 1.03293C178.028 0.626615 178.811 0.428187 179.602 0.462005C180.383 0.409015 181.161 0.608015 181.82 1.02975C182.48 1.45149 182.987 2.07374 183.267 2.80502L187.802 12.838ZM182.125 8.63303L180.173 4.09701C180.126 3.97439 180.042 3.86948 179.932 3.79697C179.833 3.73558 179.718 3.70435 179.602 3.707C179.486 3.70852 179.373 3.73946 179.272 3.79697C179.163 3.86939 179.079 3.97436 179.032 4.09701L177.11 8.63303H182.125Z" fill="white"/>
<path d="M194.471 13.4092C193.812 13.4207 193.155 13.3399 192.519 13.1692C192.033 13.0335 191.595 12.7626 191.257 12.3882C190.922 12.022 190.685 11.5777 190.566 11.0961C190.412 10.5089 190.341 9.90304 190.356 9.29614V0.733154H193.78V8.96313C193.752 9.30114 193.837 9.63882 194.02 9.92407C194.17 10.1041 194.47 10.1642 194.92 10.1642H203.72V13.4081L194.471 13.4092Z" fill="white"/>
<path d="M220.213 0.73291V4.09692H210.571C210.361 4.09692 210.271 4.217 210.271 4.427V5.8689H220.153V8.302H210.271V9.83398C210.271 10.074 210.361 10.1639 210.571 10.1639H220.213V13.408H208.649C208.408 13.4433 208.162 13.4218 207.931 13.3452C207.7 13.2686 207.49 13.1391 207.318 12.9669C207.146 12.7948 207.016 12.5849 206.94 12.3538C206.863 12.1227 206.842 11.8769 206.877 11.636V2.41394C206.877 1.27261 207.477 0.701904 208.677 0.701904H220.212L220.213 0.73291Z" fill="white"/>
</svg>
