<svg width="179" height="203" viewBox="0 0 179 203" fill="none" xmlns="http://www.w3.org/2000/svg">
<path opacity="0.036" d="M175.608 149.886C161.606 142.896 150.663 131.002 144.861 116.467L142.843 111.435C142.325 110.42 141.537 109.567 140.565 108.972C139.594 108.377 138.476 108.062 137.337 108.062C136.197 108.062 135.079 108.377 134.108 108.972C133.136 109.567 132.348 110.42 131.83 111.435L129.812 116.473C124.008 131.005 113.065 142.897 99.065 149.886C98.079 150.379 97.2498 151.137 96.6703 152.075C96.0907 153.013 95.7838 154.094 95.7838 155.197C95.7838 156.299 96.0907 157.38 96.6703 158.318C97.2498 159.256 98.079 160.014 99.065 160.507C113.067 167.497 124.01 179.391 129.812 193.926L131.83 198.958C132.27 200.058 133.03 201.002 134.012 201.666C134.993 202.33 136.151 202.686 137.337 202.686C138.522 202.686 139.68 202.33 140.661 201.666C141.643 201.002 142.403 200.058 142.843 198.958L144.861 193.92C150.665 179.388 161.608 167.496 175.608 160.507C176.594 160.014 177.423 159.256 178.003 158.318C178.582 157.38 178.889 156.299 178.889 155.197C178.889 154.094 178.582 153.013 178.003 152.075C177.423 151.137 176.594 150.379 175.608 149.886ZM119.529 72.091C123.713 72.0595 127.813 70.9072 131.401 68.754V83.959H113.593C112.019 83.959 110.509 84.5844 109.396 85.6976C108.282 86.8108 107.657 88.3207 107.657 89.895C107.657 91.4693 108.282 92.9792 109.396 94.0924C110.509 95.2056 112.019 95.831 113.593 95.831H161.081C162.655 95.831 164.165 95.2056 165.278 94.0924C166.392 92.9792 167.017 91.4693 167.017 89.895C167.017 88.3207 166.392 86.8108 165.278 85.6976C164.165 84.5844 162.655 83.959 161.081 83.959H143.273V68.749C146.861 70.9023 150.961 72.0546 155.145 72.086C160.926 72.0868 166.509 69.9786 170.846 66.1567C175.184 62.3348 177.978 57.0618 178.705 51.3267C179.432 45.5915 178.041 39.7881 174.795 35.005C171.548 30.2218 166.667 26.7875 161.069 25.346C161.08 25.097 161.08 24.846 161.08 24.598C161.08 18.3007 158.578 12.2613 154.126 7.80846C149.673 3.35559 143.633 0.854004 137.336 0.854004C131.039 0.854004 124.999 3.35559 120.546 7.80846C116.094 12.2613 113.592 18.3007 113.592 24.598C113.592 24.847 113.592 25.098 113.603 25.346C108.006 26.7891 103.128 30.2239 99.8823 35.0067C96.6369 39.7895 95.2473 45.5917 95.9741 51.3258C96.7008 57.0598 99.494 62.3319 103.83 66.1538C108.166 69.9757 113.747 72.0849 119.527 72.086L119.529 72.091ZM60.168 0.859001C52.076 0.859001 46.255 5.311 42.36 10.679C38.46 5.311 32.644 0.859001 24.552 0.859001C11.01 0.859001 0.808008 13.003 0.808008 29.101C0.808008 45.762 12.622 57.268 28.981 73.201C31.868 76.013 34.94 79.001 38.163 82.227C38.7141 82.7783 39.3684 83.2157 40.0885 83.5141C40.8086 83.8125 41.5805 83.9661 42.36 83.9661C43.1395 83.9661 43.9114 83.8125 44.6315 83.5141C45.3517 83.2157 46.0059 82.7783 46.557 82.227C49.78 79.004 52.857 76.013 55.739 73.201C72.098 57.271 83.912 45.764 83.912 29.101C83.912 13.001 73.712 0.859001 60.169 0.859001H60.168ZM46.453 109.348C45.3515 108.293 43.8854 107.705 42.3605 107.705C40.8356 107.705 39.3695 108.293 38.268 109.348L8.18201 137.996C3.91304 141.977 1.26733 147.397 0.754015 153.211C0.240697 159.026 1.89604 164.825 5.4015 169.493C8.90695 174.16 14.0148 177.367 19.7422 178.494C25.4695 179.622 31.4116 178.592 36.425 175.602V190.812H18.617C17.0427 190.812 15.5328 191.437 14.4196 192.551C13.3064 193.664 12.681 195.174 12.681 196.748C12.681 198.322 13.3064 199.832 14.4196 200.945C15.5328 202.059 17.0427 202.684 18.617 202.684H66.105C67.6793 202.684 69.1892 202.059 70.3024 200.945C71.4156 199.832 72.041 198.322 72.041 196.748C72.041 195.174 71.4156 193.664 70.3024 192.551C69.1892 191.437 67.6793 190.812 66.105 190.812H48.297V175.602C51.885 177.755 55.9846 178.908 60.169 178.939C64.9151 178.939 69.5523 177.517 73.4822 174.856C77.412 172.195 80.4543 168.417 82.2162 164.01C83.9782 159.603 84.3791 154.769 83.3671 150.132C82.3552 145.495 79.9768 141.268 76.539 137.996L46.453 109.348Z" fill="white"/>
<g filter="url(#filter0_d_124_6)">
<path d="M130.669 125.715C123.975 122.374 118.743 116.688 115.969 109.74L115.005 107.335C114.758 106.85 114.381 106.442 113.916 106.158C113.452 105.873 112.917 105.722 112.372 105.722C111.828 105.722 111.293 105.873 110.829 106.158C110.364 106.442 109.987 106.85 109.74 107.335L108.776 109.743C106.001 116.69 100.769 122.374 94.076 125.715C93.6045 125.951 93.208 126.313 92.9309 126.761C92.6537 127.21 92.507 127.726 92.507 128.254C92.507 128.781 92.6537 129.297 92.9309 129.746C93.208 130.194 93.6045 130.556 94.076 130.792C100.77 134.133 106.002 139.819 108.776 146.767L109.74 149.172C109.95 149.698 110.314 150.149 110.783 150.467C111.252 150.785 111.806 150.955 112.372 150.955C112.939 150.955 113.493 150.785 113.962 150.467C114.431 150.149 114.795 149.698 115.005 149.172L115.969 146.764C118.744 139.817 123.976 134.133 130.669 130.792C131.14 130.556 131.537 130.194 131.814 129.746C132.091 129.297 132.238 128.781 132.238 128.254C132.238 127.726 132.091 127.21 131.814 126.761C131.537 126.313 131.14 125.951 130.669 125.715V125.715ZM103.862 88.5271C105.863 88.5105 107.822 87.958 109.537 86.927V94.198H101.024C100.271 94.198 99.5497 94.497 99.0176 95.0291C98.4854 95.5613 98.1865 96.283 98.1865 97.0356C98.1865 97.7881 98.4854 98.5098 99.0176 99.042C99.5497 99.5741 100.271 99.873 101.024 99.873H123.724C124.477 99.873 125.198 99.5741 125.73 99.042C126.263 98.5098 126.561 97.7881 126.561 97.0356C126.561 96.283 126.263 95.5613 125.73 95.0291C125.198 94.497 124.477 94.198 123.724 94.198H115.211V86.927C116.926 87.958 118.885 88.5106 120.886 88.5271C123.649 88.527 126.318 87.519 128.391 85.6921C130.464 83.8651 131.799 81.3447 132.147 78.6034C132.494 75.8621 131.83 73.0882 130.278 70.8018C128.726 68.5154 126.394 66.8735 123.718 66.1841C123.723 66.0651 123.723 65.946 123.723 65.827C123.723 62.8168 122.527 59.9299 120.399 57.8014C118.27 55.6729 115.383 54.4771 112.373 54.4771C109.363 54.4771 106.476 55.6729 104.347 57.8014C102.219 59.9299 101.023 62.8168 101.023 65.827C101.023 65.946 101.023 66.0651 101.028 66.1841C98.3521 66.8735 96.0197 68.5154 94.468 70.8018C92.9162 73.0882 92.2518 75.8621 92.5993 78.6034C92.9467 81.3447 94.2822 83.8651 96.3553 85.6921C98.4284 87.519 101.097 88.527 103.86 88.5271H103.862ZM75.487 54.4771C73.7927 54.5056 72.1312 54.9482 70.6473 55.7664C69.1635 56.5846 67.9023 57.7535 66.974 59.1711C66.0457 57.7535 64.7845 56.5846 63.3007 55.7664C61.8168 54.9482 60.1553 54.5056 58.461 54.4771C51.988 54.4771 47.111 60.2821 47.111 67.9771C47.111 75.9411 52.758 81.442 60.578 89.056C61.958 90.4 63.427 91.83 64.967 93.371C65.499 93.9031 66.2206 94.2019 66.973 94.2019C67.7254 94.2019 68.447 93.9031 68.979 93.371C70.52 91.83 71.988 90.4 73.368 89.056C81.188 81.441 86.835 75.9411 86.835 67.9771C86.835 60.2771 81.958 54.4771 75.485 54.4771H75.487ZM68.931 106.337C68.4044 105.833 67.7035 105.551 66.9745 105.551C66.2455 105.551 65.5446 105.833 65.018 106.337L50.636 120.032C48.5841 121.932 47.3094 124.525 47.0584 127.31C46.8074 130.095 47.5979 132.874 49.2771 135.11C50.9563 137.346 53.4049 138.88 56.1495 139.415C58.894 139.95 61.7396 139.449 64.136 138.008V145.277H55.623C54.8704 145.277 54.1487 145.576 53.6166 146.108C53.0844 146.64 52.7855 147.362 52.7855 148.115C52.7855 148.867 53.0844 149.589 53.6166 150.121C54.1487 150.653 54.8704 150.952 55.623 150.952H78.323C79.0755 150.952 79.7973 150.653 80.3294 150.121C80.8616 149.589 81.1605 148.867 81.1605 148.115C81.1605 147.362 80.8616 146.64 80.3294 146.108C79.7973 145.576 79.0755 145.277 78.323 145.277H69.81V138.006C71.5246 139.037 73.4843 139.59 75.485 139.606C77.7538 139.606 79.9706 138.926 81.8493 137.654C83.7279 136.382 85.1823 134.576 86.0245 132.47C86.8668 130.363 87.0584 128.052 86.5745 125.835C86.0906 123.619 84.9535 121.598 83.31 120.034L68.931 106.337Z" fill="url(#paint0_linear_124_6)"/>
</g>
<defs>
<filter id="filter0_d_124_6" x="32.0128" y="49.4771" width="115.225" height="126.478" filterUnits="userSpaceOnUse" color-interpolation-filters="sRGB">
<feFlood flood-opacity="0" result="BackgroundImageFix"/>
<feColorMatrix in="SourceAlpha" type="matrix" values="0 0 0 0 0 0 0 0 0 0 0 0 0 0 0 0 0 0 127 0" result="hardAlpha"/>
<feOffset dy="10"/>
<feGaussianBlur stdDeviation="7.5"/>
<feColorMatrix type="matrix" values="0 0 0 0 1 0 0 0 0 1 0 0 0 0 1 0 0 0 0.325 0"/>
<feBlend mode="normal" in2="BackgroundImageFix" result="effect1_dropShadow_124_6"/>
<feBlend mode="normal" in="SourceGraphic" in2="effect1_dropShadow_124_6" result="shape"/>
</filter>
<linearGradient id="paint0_linear_124_6" x1="119.795" y1="189.064" x2="38.501" y2="8.64966" gradientUnits="userSpaceOnUse">
<stop stop-color="#91F3FF"/>
<stop offset="1" stop-color="#FFF6AD"/>
</linearGradient>
</defs>
</svg>
