<svg width="37" height="25" viewBox="0 0 37 25" fill="none" xmlns="http://www.w3.org/2000/svg">
<path d="M32.122 11.089C34.157 10.921 35.537 9.997 36.068 8.742C34.7394 9.38042 33.2332 9.54759 31.797 9.216C31.736 8.916 31.667 8.64001 31.597 8.38701C30.639 4.86901 27.356 2.03401 23.917 2.37601C24.195 2.26301 24.477 2.159 24.759 2.065C25.137 1.93 27.359 1.565 27.009 0.785004C26.709 0.0960037 24 1.306 23.49 1.464C24.164 1.211 25.28 0.775 25.399 0C24.3434 0.156361 23.3581 0.622764 22.568 1.34001C22.8584 1.04836 23.0486 0.671864 23.111 0.264999C20.354 2.025 18.744 5.57201 17.441 9.01401C16.6259 8.16442 15.7035 7.42484 14.697 6.81401C11.6997 5.23267 8.59389 3.86623 5.40298 2.72501C5.27098 4.14101 6.10298 6.02501 8.50298 7.27701C7.75084 7.25492 6.99961 7.34491 6.27397 7.54401C6.58297 9.16701 7.59398 10.504 10.331 11.15C9.8718 11.1325 9.41397 11.2105 8.98654 11.3792C8.55911 11.5479 8.1714 11.8036 7.84798 12.13C8.26324 12.9204 8.9193 13.5581 9.72115 13.9507C10.523 14.3434 11.429 14.4706 12.308 14.314C9.52798 15.514 11.174 17.729 13.437 17.398C11.6889 19.2024 9.30362 20.2504 6.79219 20.3176C4.28076 20.3847 1.84294 19.4655 0.000976562 17.757C9.12198 30.179 28.95 25.103 31.901 13.138C32.6967 13.1961 33.4955 13.0802 34.2419 12.7984C34.9882 12.5165 35.6643 12.0755 36.223 11.506C34.8422 11.6925 33.4369 11.5496 32.122 11.089Z" fill="white"/>
</svg>
